<?xml version="1.0" encoding="utf-8"?>
<!-- Generator: Adobe Illustrator 17.0.0, SVG Export Plug-In . SVG Version: 6.00 Build 0)  -->
<svg version="1.2" baseProfile="tiny" id="Layer_1" xmlns="http://www.w3.org/2000/svg" xmlns:xlink="http://www.w3.org/1999/xlink"
	 x="0px" y="0px" width="80px" height="80px" viewBox="0 0 80 80" xml:space="preserve">
<g>
	<path fill="#4555A5" d="M21.322,44.88H31.35v31.903c0,0.863,0.703,1.566,1.57,1.566h13.078c0.867,0,1.57-0.703,1.57-1.566V44.88
		h11.723c0.867,0,1.567-0.703,1.567-1.566l0.007-12.645c0-0.414-0.168-0.812-0.461-1.109c-0.293-0.293-0.691-0.457-1.109-0.457
		H47.568v-7.398c0-3.555,0.848-5.36,5.477-5.36l6.719-0.004c0.867,0,1.566-0.703,1.566-1.566V3.037c0-0.701-0.459-1.284-1.088-1.488
		H47.651C37.678,2.444,31.35,9.632,31.35,20.376v8.727H21.322c-0.863,0-1.566,0.699-1.566,1.566v12.645
		C19.756,44.177,20.459,44.88,21.322,44.88z"/>
</g>
</svg>
