<?xml version="1.0" encoding="utf-8"?>
<!-- Generator: Adobe Illustrator 17.0.0, SVG Export Plug-In . SVG Version: 6.00 Build 0)  -->
<svg version="1.2" baseProfile="tiny" id="Layer_1" xmlns="http://www.w3.org/2000/svg" xmlns:xlink="http://www.w3.org/1999/xlink"
	 x="0px" y="0px" width="80px" height="80px" viewBox="0 0 80 80" xml:space="preserve">
<g>
	<path fill="#4555A5" d="M57.003,1.696H23.169c-11.491,0-20.838,9.348-20.838,20.838v33.833c0,11.491,9.347,20.838,20.838,20.838
		h33.834c11.491,0,20.838-9.349,20.838-20.838V22.535C77.841,11.044,68.494,1.696,57.003,1.696L57.003,1.696z M71.141,56.368
		c0,7.797-6.342,14.138-14.138,14.138H23.169c-7.797,0-14.138-6.342-14.138-14.138V22.535c0-7.797,6.342-14.139,14.138-14.139
		h33.834c7.797,0,14.138,6.342,14.138,14.139V56.368z M71.141,56.368"/>
	<path fill="#4555A5" d="M40.086,19.996c-10.73,0-19.458,8.728-19.458,19.455c0,10.73,8.728,19.458,19.458,19.458
		c10.728,0,19.458-8.728,19.458-19.458C59.544,28.724,50.814,19.996,40.086,19.996L40.086,19.996z M40.086,52.207
		c-7.033,0-12.758-5.72-12.758-12.756c0-7.033,5.723-12.758,12.758-12.758s12.758,5.725,12.758,12.758
		C52.844,46.487,47.12,52.207,40.086,52.207L40.086,52.207z M40.086,52.207"/>
	<path fill="#4555A5" d="M60.36,14.315c-1.291,0-2.559,0.521-3.47,1.437c-0.918,0.912-1.444,2.181-1.444,3.477
		c0,1.291,0.528,2.558,1.444,3.474c0.909,0.912,2.178,1.438,3.47,1.438c1.295,0,2.558-0.526,3.474-1.438
		c0.916-0.916,1.439-2.185,1.439-3.474c0-1.296-0.523-2.565-1.439-3.477C62.922,14.836,61.655,14.315,60.36,14.315L60.36,14.315z
		 M60.36,14.315"/>
</g>
</svg>
