<?xml version="1.0" encoding="utf-8"?>
<!-- Generator: Adobe Illustrator 17.0.0, SVG Export Plug-In . SVG Version: 6.00 Build 0)  -->
<svg version="1.2" baseProfile="tiny" id="Layer_1" xmlns="http://www.w3.org/2000/svg" xmlns:xlink="http://www.w3.org/1999/xlink"
	 x="0px" y="0px" width="80px" height="80px" viewBox="0 0 80 80" xml:space="preserve">
<g>
	<path fill="#4555A5" d="M10.289,28.268c0.939,0.663,3.769,2.63,8.491,5.902c4.725,3.275,8.343,5.795,10.855,7.561
		c0.276,0.193,0.864,0.615,1.761,1.264c0.899,0.65,1.644,1.174,2.237,1.574c0.593,0.402,1.311,0.849,2.155,1.348
		c0.842,0.497,1.636,0.87,2.381,1.117c0.747,0.249,1.438,0.372,2.073,0.372h0.082c0.636,0,1.326-0.124,2.073-0.372
		c0.744-0.248,1.539-0.623,2.381-1.117c0.842-0.499,1.559-0.946,2.155-1.348c0.594-0.4,1.339-0.924,2.235-1.574
		c0.899-0.648,1.487-1.07,1.763-1.264c2.54-1.768,9.003-6.255,19.389-13.465c2.016-1.408,3.7-3.106,5.053-5.095
		c1.353-1.989,2.031-4.072,2.031-6.255c0-1.822-0.658-3.384-1.969-4.683c-1.311-1.299-2.865-1.946-4.66-1.946H9.792
		c-2.128,0-3.764,0.718-4.911,2.155c-1.145,1.435-1.718,3.23-1.718,5.386c0,1.74,0.76,3.625,2.279,5.656
		C6.959,25.512,8.576,27.109,10.289,28.268L10.289,28.268z M10.289,28.268"/>
	<path fill="#4555A5" d="M73.26,32.7c-9.058,6.13-15.935,10.895-20.631,14.291c-1.574,1.162-2.853,2.066-3.833,2.713
		c-0.978,0.651-2.284,1.314-3.913,1.989c-1.632,0.678-3.148,1.016-4.559,1.016h-0.082c-1.41,0-2.93-0.338-4.559-1.016
		c-1.628-0.675-2.935-1.338-3.915-1.989c-0.978-0.648-2.257-1.552-3.831-2.713c-3.73-2.734-10.593-7.498-20.591-14.291
		c-1.574-1.051-2.97-2.252-4.184-3.605v32.894c0,1.825,0.648,3.384,1.946,4.683c1.299,1.299,2.86,1.946,4.683,1.946h60.983
		c1.822,0,3.384-0.648,4.683-1.946c1.299-1.299,1.947-2.858,1.947-4.683V29.095C76.215,30.421,74.835,31.622,73.26,32.7L73.26,32.7z
		 M73.26,32.7"/>
</g>
</svg>
